<mxfile host="app.diagrams.net" modified="2024-05-31T06:51:53.313Z" agent="Mozilla/5.0 (Windows NT 10.0; Win64; x64) AppleWebKit/537.36 (KHTML, like Gecko) Chrome/125.0.0.0 Safari/537.36" version="24.4.10" etag="WaP39Vol89jUEthN3XuD" type="github">
  <diagram name="第 1 页" id="hC75igiCwvL__al-wfEh">
    <mxGraphModel>
      <root>
        <mxCell id="0" />
        <mxCell id="1" parent="0" />
      </root>
    </mxGraphModel>
  </diagram>
</mxfile>
